<?xml version="1.0" encoding="UTF-8"?>
<svg xmlns="http://www.w3.org/2000/svg" id="Layer_2" viewBox="0 0 555.16 148.85">
  <defs>
    <style>.cls-1{fill:#38a6d3;}</style>
  </defs>
  <g id="GoWiser_H_BS">
    <g>
      <path class="cls-1" d="M142.82,30.13c-25.7,0-45.19,19.15-45.19,45.03s18.99,44.71,45.19,44.71,45.36-19.15,45.36-44.87-18.99-44.87-45.36-44.87Zm0,73.86c-15.88,0-27.18-11.97-27.18-28.83s11.13-29.15,27.18-29.15,27.51,12.29,27.51,28.99-11.63,28.99-27.51,28.99Z"></path>
      <path class="cls-1" d="M72.67,22.28c-.46,5.07-2.03,9.65-4.48,13.51-6.61-3.62-14.4-5.66-22.98-5.66-6.5,0-12.6,1.22-18.09,3.48-5.61,2.29-10.57,5.64-14.65,9.85C4.67,51.46,0,62.5,0,75.15c0,15.85,7.12,29.05,18.68,36.89,7.3,4.99,16.37,7.82,26.53,7.82,15.88,0,27.5,12.29,27.5,28.97v.02h17.85v-.02c0-15.75-7.14-29.05-18.74-36.95,11.54-7.93,18.74-21.19,18.74-36.89,0-9.08-2.37-17.34-6.61-24.22-.78-1.29-1.64-2.53-2.54-3.72,5.29-6.79,8.57-15.27,9.15-24.78h-17.88Zm-27.46,81.71c-15.89,0-27.19-11.97-27.19-28.83,0-7.5,2.26-14.18,6.23-19.22,4.01-5.17,9.81-8.65,16.75-9.63,1.37-.21,2.77-.3,4.21-.3,2.73,0,5.34,.37,7.79,1.06,.76,.21,1.53,.46,2.26,.75,5.36,2.02,9.77,5.69,12.84,10.52,.44,.7,.86,1.43,1.24,2.18,2.16,4.2,3.37,9.11,3.37,14.48,0,16.7-11.62,28.99-27.5,28.99Z"></path>
      <circle class="cls-1" cx="338.74" cy="11.13" r="11.13" transform="translate(91.34 242.78) rotate(-45)"></circle>
      <rect class="cls-1" x="329.81" y="32.26" width="17.85" height="85.48"></rect>
      <path class="cls-1" d="M374.72,54.04c0-5.89,4.91-9.33,11.46-9.33,9.5,0,14.08,5.57,16.54,9.5l12.28-8.19c-3.27-6.55-11.79-15.88-27.84-15.88s-29.31,9.17-29.31,24.23c0,29.64,41.59,23.74,41.59,40.12,0,6.88-5.57,10.64-13.1,10.64-10.64,0-16.54-5.4-20.47-11.13l-11.13,8.84c4.26,7.7,13.43,17.03,30.78,17.03s30.95-10.32,30.95-26.2c0-30.13-41.76-23.25-41.76-39.63Z"></path>
      <path class="cls-1" d="M463.16,30.13c-23.42,0-41.59,18.67-41.59,45.19s17.68,44.54,44.38,44.54c20.3,0,31.6-11.63,35.7-18.67l-11.79-8.84c-3.27,4.75-10.64,11.95-23.58,11.95-15.23,0-26.2-9.82-26.53-25.05h64.35c.16-1.47,.16-2.95,.16-4.42,0-26.85-15.23-44.7-41.1-44.7Zm-22.76,36.84c1.15-13.43,10.64-21.94,22.92-21.94s22.11,7.86,22.76,21.94h-45.69Z"></path>
      <path class="cls-1" d="M530.76,45.68v-13.43h-17.52V117.73h17.85v-36.84c0-18.5,5.4-32.75,24.07-32.75V30.13c-12.12,0-21.12,7.04-24.4,15.56Z"></path>
      <path class="cls-1" d="M300.03,55v30.23c0,9.33-7.55,16.88-16.86,16.88s-16.88-7.55-16.88-16.88V32.26h-17.75v52.97c0,9.33-7.55,16.88-16.86,16.88s-16.88-7.55-16.88-16.88V32.26h-17.75v52.97c0,13,7.17,24.32,17.75,30.25,4.99,2.8,10.74,4.39,16.88,4.39s11.87-1.59,16.86-4.39c3.34-1.87,6.34-4.27,8.88-7.1,2.54,2.82,5.54,5.23,8.87,7.1,4.99,2.8,10.74,4.39,16.88,4.39s11.87-1.59,16.86-4.39c10.59-5.91,17.75-17.24,17.75-30.25V32.26h-17.75v22.74Z"></path>
    </g>
  </g>
</svg>
