<?xml version="1.0" encoding="UTF-8"?>
<svg xmlns="http://www.w3.org/2000/svg" width="533.08" height="535.85" viewBox="0 0 533.08 535.85">
  <g id="Layer_1" data-name="Layer 1">
    <g id="b">
      <g id="c">
        <g>
          <g>
            <path d="M136.88,410.42c-24.63,0-43.31,18.36-43.31,43.15s18.2,42.85,43.31,42.85,43.47-18.36,43.47-43-18.2-43-43.47-43Zm0,70.79c-15.22,0-26.05-11.47-26.05-27.63s10.66-27.94,26.05-27.94,26.37,11.77,26.37,27.78-11.15,27.78-26.37,27.78h0Z" style="fill: #38a6d3;"/>
            <path d="M69.64,402.89c-.44,4.86-1.95,9.25-4.3,12.95-6.34-3.47-13.8-5.42-22.03-5.42-6.23,0-12.08,1.17-17.33,3.34-5.38,2.19-10.13,5.41-14.04,9.44-7.46,7.66-11.94,18.25-11.94,30.37,0,15.19,6.82,27.84,17.9,35.35,6.99,4.78,15.69,7.49,25.42,7.49,15.22,0,26.35,11.77,26.35,27.77v.02h17.11v-.02c0-15.1-6.84-27.85-17.96-35.42,11.06-7.6,17.96-20.3,17.96-35.35,0-8.7-2.27-16.62-6.34-23.21-.75-1.23-1.57-2.42-2.44-3.56,5.07-6.5,8.21-14.64,8.77-23.75h-17.13Zm-26.32,78.31c-15.23,0-26.06-11.47-26.06-27.63,0-7.19,2.16-13.59,5.97-18.42,3.84-4.95,9.4-8.29,16.06-9.23,1.31-.2,2.65-.29,4.04-.29,2.62,0,5.12,.35,7.46,1.02,.73,.2,1.46,.44,2.16,.72,5.13,1.93,9.37,5.45,12.31,10.08,.43,.67,.82,1.37,1.19,2.09,2.07,4.02,3.23,8.73,3.23,13.88,0,16.01-11.13,27.78-26.35,27.78h-.01Z" style="fill: #38a6d3;"/>
            <circle cx="324.64" cy="392.21" r="10.67" style="fill: #38a6d3;"/>
            <rect x="316.09" y="412.46" width="17.11" height="81.92" style="fill: #38a6d3;"/>
            <path d="M359.13,433.33c0-5.65,4.71-8.94,10.99-8.94,9.1,0,13.5,5.34,15.85,9.1l11.77-7.85c-3.14-6.28-11.3-15.22-26.68-15.22s-28.09,8.79-28.09,23.23c0,28.4,39.86,22.76,39.86,38.45,0,6.59-5.34,10.2-12.55,10.2-10.2,0-15.85-5.18-19.62-10.67l-10.67,8.48c4.08,7.38,12.87,16.32,29.5,16.32s29.66-9.89,29.66-25.11c0-28.88-40.02-22.29-40.02-37.98h0Z" style="fill: #38a6d3;"/>
            <path d="M443.89,410.42c-22.44,0-39.86,17.89-39.86,43.31s16.95,42.69,42.53,42.69c19.46,0,30.29-11.14,34.21-17.89l-11.3-8.47c-3.14,4.55-10.2,11.46-22.6,11.46-14.6,0-25.11-9.42-25.43-24.01h61.68c.16-1.41,.16-2.83,.16-4.24,0-25.74-14.6-42.84-39.39-42.84h0Zm-21.81,35.3c1.1-12.87,10.2-21.03,21.97-21.03s21.19,7.53,21.81,21.03h-43.78Z" style="fill: #38a6d3;"/>
            <path d="M508.68,425.32v-12.87h-16.79v81.92h17.11v-35.31c0-17.73,5.18-31.39,23.07-31.39v-17.26c-11.61,0-20.25,6.75-23.38,14.91h-.01Z" style="fill: #38a6d3;"/>
            <path d="M287.55,434.25v28.97c0,8.94-7.24,16.18-16.16,16.18s-16.18-7.24-16.18-16.18v-50.77h-17.01v50.77c0,8.94-7.24,16.18-16.16,16.18s-16.18-7.24-16.18-16.18v-50.77h-17.01v50.77c0,12.46,6.87,23.31,17.01,28.99,4.78,2.68,10.3,4.2,16.18,4.2s11.38-1.52,16.16-4.2c3.2-1.79,6.07-4.1,8.51-6.81,2.43,2.71,5.31,5.01,8.5,6.81,4.78,2.68,10.3,4.2,16.18,4.2s11.38-1.52,16.16-4.2c10.14-5.67,17.01-16.53,17.01-28.99v-50.77h-17.01v21.8Z" style="fill: #38a6d3;"/>
          </g>
          <g>
            <polygon points="389.6 295.18 204.25 350.1 255.74 235.69 389.6 295.18" style="fill: #fff;"/>
            <polygon points="389.6 54.92 389.6 295.18 142.47 185.34 245.44 0 389.6 54.92" style="fill: #38a6d3;"/>
          </g>
        </g>
      </g>
    </g>
  </g>
  <g id="Layer_2" data-name="Layer 2">
    <g>
      <path d="M109.1,528.3l-3.83-5.53h-4.23v5.53h-4.6v-19.87h8.6c5.31,0,8.63,2.75,8.63,7.21,0,2.98-1.5,5.17-4.09,6.27l4.46,6.39h-4.94Zm-4.31-16.12h-3.75v6.93h3.75c2.81,0,4.23-1.31,4.23-3.46s-1.42-3.46-4.23-3.46Z" style="fill: #38a6d3;"/>
      <path d="M131.86,521.91h-11.55c.43,1.9,2.04,3.07,4.37,3.07,1.62,0,2.78-.48,3.83-1.48l2.36,2.55c-1.42,1.62-3.55,2.47-6.3,2.47-5.28,0-8.71-3.32-8.71-7.86s3.49-7.86,8.15-7.86,7.95,3.01,7.95,7.92c0,.34-.06,.82-.09,1.19Zm-11.61-2.58h7.52c-.31-1.93-1.76-3.18-3.75-3.18s-3.46,1.22-3.77,3.18Z" style="fill: #38a6d3;"/>
      <path d="M133.43,526.88l1.48-3.18c1.36,.88,3.43,1.48,5.31,1.48,2.04,0,2.81-.54,2.81-1.39,0-2.5-9.22,.06-9.22-6.04,0-2.9,2.61-4.94,7.07-4.94,2.1,0,4.43,.48,5.88,1.33l-1.48,3.15c-1.5-.85-3.01-1.14-4.4-1.14-1.99,0-2.84,.62-2.84,1.42,0,2.61,9.22,.09,9.22,6.1,0,2.84-2.64,4.85-7.21,4.85-2.58,0-5.19-.71-6.61-1.65Z" style="fill: #38a6d3;"/>
      <path d="M165.59,519.56v8.74h-4.43v-8.06c0-2.47-1.14-3.6-3.09-3.6-2.13,0-3.66,1.31-3.66,4.12v7.55h-4.43v-21.06h4.43v7.38c1.19-1.19,2.89-1.82,4.85-1.82,3.6,0,6.33,2.1,6.33,6.75Z" style="fill: #38a6d3;"/>
      <path d="M183.1,519.59v8.71h-4.14v-1.9c-.82,1.39-2.41,2.13-4.65,2.13-3.58,0-5.7-1.99-5.7-4.63s1.9-4.57,6.56-4.57h3.52c0-1.9-1.14-3.01-3.52-3.01-1.62,0-3.29,.54-4.4,1.42l-1.59-3.09c1.67-1.19,4.14-1.84,6.58-1.84,4.65,0,7.35,2.16,7.35,6.78Zm-4.43,3.89v-1.56h-3.04c-2.07,0-2.72,.77-2.72,1.79,0,1.11,.94,1.84,2.5,1.84,1.48,0,2.75-.68,3.26-2.07Z" style="fill: #38a6d3;"/>
      <path d="M203.74,520.66c0,4.8-3.32,7.86-7.61,7.86-1.9,0-3.46-.6-4.6-1.84v7.12h-4.43v-20.78h4.23v1.76c1.11-1.33,2.75-1.99,4.8-1.99,4.29,0,7.61,3.07,7.61,7.86Zm-4.48,0c0-2.64-1.67-4.23-3.89-4.23s-3.89,1.59-3.89,4.23,1.67,4.23,3.89,4.23,3.89-1.59,3.89-4.23Z" style="fill: #38a6d3;"/>
      <path d="M221.57,521.91h-11.55c.43,1.9,2.04,3.07,4.37,3.07,1.62,0,2.78-.48,3.83-1.48l2.36,2.55c-1.42,1.62-3.55,2.47-6.3,2.47-5.28,0-8.71-3.32-8.71-7.86s3.49-7.86,8.15-7.86,7.95,3.01,7.95,7.92c0,.34-.06,.82-.08,1.19Zm-11.61-2.58h7.52c-.31-1.93-1.76-3.18-3.75-3.18s-3.46,1.22-3.77,3.18Z" style="fill: #38a6d3;"/>
      <path d="M237.07,512.18h-6.36v-3.75h17.31v3.75h-6.36v16.12h-4.6v-16.12Z" style="fill: #fff;"/>
      <path d="M265.79,519.56v8.74h-4.43v-8.06c0-2.47-1.14-3.6-3.09-3.6-2.13,0-3.66,1.31-3.66,4.12v7.55h-4.43v-21.06h4.43v7.38c1.19-1.19,2.89-1.82,4.85-1.82,3.6,0,6.33,2.1,6.33,6.75Z" style="fill: #fff;"/>
      <path d="M284.84,521.91h-11.55c.43,1.9,2.04,3.07,4.37,3.07,1.62,0,2.78-.48,3.83-1.48l2.36,2.55c-1.42,1.62-3.55,2.47-6.3,2.47-5.28,0-8.71-3.32-8.71-7.86s3.49-7.86,8.15-7.86,7.95,3.01,7.95,7.92c0,.34-.06,.82-.08,1.19Zm-11.61-2.58h7.52c-.31-1.93-1.76-3.18-3.75-3.18s-3.46,1.22-3.77,3.18Z" style="fill: #fff;"/>
      <path d="M300.82,512.12v5.25h9.2v3.69h-9.2v7.24h-4.6v-19.87h15.01v3.69h-10.42Z" style="fill: #fff;"/>
      <path d="M329.04,513.03v15.27h-4.2v-1.82c-1.16,1.33-2.87,2.04-4.74,2.04-3.83,0-6.53-2.16-6.53-6.87v-8.63h4.43v7.98c0,2.55,1.14,3.69,3.09,3.69s3.52-1.31,3.52-4.12v-7.55h4.43Z" style="fill: #fff;"/>
      <path d="M343,527.56c-.91,.65-2.24,.96-3.6,.96-3.6,0-5.7-1.84-5.7-5.48v-6.27h-2.36v-3.41h2.36v-3.72h4.43v3.72h3.8v3.41h-3.8v6.21c0,1.31,.71,2.02,1.9,2.02,.65,0,1.31-.2,1.79-.57l1.19,3.12Z" style="fill: #fff;"/>
      <path d="M360.89,513.03v15.27h-4.2v-1.82c-1.16,1.33-2.87,2.04-4.74,2.04-3.83,0-6.53-2.16-6.53-6.87v-8.63h4.43v7.98c0,2.55,1.14,3.69,3.09,3.69s3.52-1.31,3.52-4.12v-7.55h4.43Z" style="fill: #fff;"/>
      <path d="M374.49,512.8v4.09c-.37-.03-.65-.06-.99-.06-2.44,0-4.06,1.33-4.06,4.26v7.21h-4.43v-15.27h4.23v2.02c1.08-1.48,2.89-2.24,5.25-2.24Z" style="fill: #fff;"/>
      <path d="M391.86,521.91h-11.55c.43,1.9,2.04,3.07,4.37,3.07,1.62,0,2.78-.48,3.83-1.48l2.36,2.55c-1.42,1.62-3.55,2.47-6.3,2.47-5.28,0-8.71-3.32-8.71-7.86s3.49-7.86,8.15-7.86,7.95,3.01,7.95,7.92c0,.34-.06,.82-.08,1.19Zm-11.61-2.58h7.52c-.31-1.93-1.76-3.18-3.75-3.18s-3.46,1.22-3.77,3.18Z" style="fill: #fff;"/>
      <path d="M401.99,518.37c0-5.9,4.6-10.27,10.87-10.27s10.87,4.34,10.87,10.27-4.63,10.27-10.87,10.27-10.87-4.37-10.87-10.27Zm17.09,0c0-3.77-2.67-6.36-6.22-6.36s-6.21,2.58-6.21,6.36,2.67,6.36,6.21,6.36,6.22-2.58,6.22-6.36Z" style="fill: #fff;"/>
      <path d="M431.74,513.37h3.92v3.41h-3.8v11.52h-4.43v-11.52h-2.36v-3.41h2.36v-.68c0-3.43,2.1-5.68,5.9-5.68,1.25,0,2.55,.26,3.38,.82l-1.16,3.21c-.48-.34-1.11-.54-1.79-.54-1.31,0-2.02,.71-2.02,2.21v.65Z" style="fill: #fff;"/>
      <path d="M459.3,524.04h-9.22l-1.76,4.26h-4.71l8.86-19.87h4.54l8.88,19.87h-4.82l-1.76-4.26Zm-1.45-3.49l-3.15-7.61-3.15,7.61h6.3Z" style="fill: #fff;"/>
      <path d="M482.75,513.03v15.27h-4.2v-1.82c-1.16,1.33-2.87,2.04-4.74,2.04-3.83,0-6.53-2.16-6.53-6.87v-8.63h4.43v7.98c0,2.55,1.14,3.69,3.09,3.69s3.52-1.31,3.52-4.12v-7.55h4.43Z" style="fill: #fff;"/>
      <path d="M502.42,507.24v21.06h-4.23v-1.76c-1.11,1.33-2.72,1.99-4.77,1.99-4.31,0-7.63-3.06-7.63-7.86s3.32-7.86,7.63-7.86c1.87,0,3.46,.6,4.57,1.84v-7.41h4.43Zm-4.34,13.42c0-2.64-1.7-4.23-3.89-4.23s-3.92,1.59-3.92,4.23,1.7,4.23,3.92,4.23,3.89-1.59,3.89-4.23Z" style="fill: #fff;"/>
      <path d="M505.97,508.43c0-1.39,1.11-2.47,2.75-2.47s2.75,1.02,2.75,2.38c0,1.48-1.11,2.55-2.75,2.55s-2.75-1.08-2.75-2.47Zm.54,4.6h4.43v15.27h-4.43v-15.27Z" style="fill: #fff;"/>
      <path d="M524.91,527.56c-.91,.65-2.24,.96-3.6,.96-3.6,0-5.7-1.84-5.7-5.48v-6.27h-2.36v-3.41h2.36v-3.72h4.43v3.72h3.8v3.41h-3.8v6.21c0,1.31,.71,2.02,1.9,2.02,.65,0,1.31-.2,1.79-.57l1.19,3.12Z" style="fill: #fff;"/>
      <path d="M526.61,525.74c0-1.65,1.22-2.72,2.75-2.72s2.75,1.08,2.75,2.72-1.22,2.78-2.75,2.78-2.75-1.16-2.75-2.78Z" style="fill: #fff;"/>
    </g>
  </g>
</svg>